<svg width="24" height="25" viewBox="0 0 24 25" fill="none" xmlns="http://www.w3.org/2000/svg">
<path fill-rule="evenodd" clip-rule="evenodd" d="M2.32698 5.79771C2 6.43944 2 7.27951 2 8.95966V15.3596C2 17.0397 2 17.8798 2.32698 18.5215C2.6146 19.086 3.07354 19.545 3.63803 19.8326C4.27976 20.1596 5.11984 20.1596 6.8 20.1596H17.2C18.8802 20.1596 19.7202 20.1596 20.362 19.8326C20.9265 19.545 21.3854 19.086 21.673 18.5215C22 17.8798 22 17.0397 22 15.3596V8.95966C22 7.27951 22 6.43944 21.673 5.79771C21.3854 5.23323 20.9265 4.77429 20.362 4.48668C19.7202 4.1597 18.8802 4.1597 17.2 4.1597H6.8C5.11984 4.1597 4.27976 4.1597 3.63803 4.48668C3.07354 4.77429 2.6146 5.23323 2.32698 5.79771ZM7.56569 8.33504C7.11026 8.02263 6.4878 8.13855 6.17538 8.59397C5.86296 9.04939 5.97889 9.67185 6.43431 9.98427L10.3029 12.6381C11.3256 13.3396 12.6744 13.3396 13.6971 12.6381L17.5657 9.98427C18.0211 9.67185 18.137 9.04939 17.8246 8.59397C17.5122 8.13855 16.8897 8.02263 16.4343 8.33504L12.5657 10.9889C12.2248 11.2227 11.7752 11.2227 11.4343 10.9889L7.56569 8.33504Z" fill="white"/>
</svg>
