<svg width="22" height="18" viewBox="0 0 22 18" fill="none" xmlns="http://www.w3.org/2000/svg">
<g clip-path="url(#clip0_198_1155)">
<path d="M1.83334 9.00001C1.83334 9.00001 5.16668 2.33334 11 2.33334C16.8333 2.33334 20.1667 9.00001 20.1667 9.00001C20.1667 9.00001 16.8333 15.6667 11 15.6667C5.16668 15.6667 1.83334 9.00001 1.83334 9.00001Z" stroke="white" stroke-width="2" stroke-linecap="round" stroke-linejoin="round"/>
<path d="M11 11.5C12.3807 11.5 13.5 10.3807 13.5 9C13.5 7.61929 12.3807 6.5 11 6.5C9.61929 6.5 8.5 7.61929 8.5 9C8.5 10.3807 9.61929 11.5 11 11.5Z" stroke="white" stroke-width="2" stroke-linecap="round" stroke-linejoin="round"/>
<path d="M1.5 17L20.5 0.999999" stroke="white" stroke-width="2"/>
</g>
<defs>
<clipPath id="clip0_198_1155">
<rect width="22" height="18" fill="white"/>
</clipPath>
</defs>
</svg>
