<svg width="32" height="32" viewBox="0 0 32 32" fill="none" xmlns="http://www.w3.org/2000/svg">
<g clip-path="url(#clip0_375_1520)">
<path d="M30.0701 13.6583L17.3235 13.6577C16.7607 13.6577 16.3044 14.1138 16.3044 14.6767V18.7487C16.3044 19.3114 16.7606 19.7677 17.3235 19.7677H24.5016C23.7155 21.8076 22.2485 23.5159 20.3768 24.6013L23.4375 29.8997C28.3473 27.0602 31.25 22.0779 31.25 16.5007C31.25 15.7065 31.1915 15.1389 31.0744 14.4996C30.9854 14.014 30.5638 13.6583 30.0701 13.6583Z" fill="#167EE6"/>
<path d="M15.625 25.8859C12.1122 25.8859 9.04552 23.9666 7.39848 21.1264L2.10027 24.1802C4.79649 28.8532 9.8474 32 15.625 32C18.4593 32 21.1336 31.2369 23.4375 29.907V29.8997L20.3768 24.6013C18.9767 25.4133 17.3566 25.8859 15.625 25.8859Z" fill="#12B347"/>
<path d="M23.4375 29.907V29.8997L20.3768 24.6013C18.9767 25.4132 17.3568 25.8859 15.625 25.8859V32C18.4593 32 21.1338 31.2369 23.4375 29.907Z" fill="#0F993E"/>
<path d="M6.11414 16.375C6.11414 14.6435 6.58667 13.0236 7.3985 11.6236L2.10028 8.56976C0.763061 10.8663 0 13.5334 0 16.375C0 19.2166 0.763061 21.8837 2.10028 24.1802L7.3985 21.1264C6.58667 19.7264 6.11414 18.1065 6.11414 16.375Z" fill="#FFD500"/>
<path d="M15.625 6.86414C17.9157 6.86414 20.0198 7.6781 21.6633 9.03204C22.0688 9.36603 22.6581 9.34192 23.0295 8.97052L25.9146 6.08539C26.336 5.664 26.306 4.97424 25.8558 4.58374C23.1022 2.19489 19.5195 0.75 15.625 0.75C9.8474 0.75 4.79649 3.89679 2.10027 8.56976L7.39848 11.6236C9.04552 8.78345 12.1122 6.86414 15.625 6.86414Z" fill="#FF4B26"/>
<path d="M21.6633 9.03204C22.0688 9.36603 22.6582 9.34192 23.0295 8.97052L25.9146 6.08539C26.3359 5.664 26.3059 4.97424 25.8558 4.58374C23.1022 2.19482 19.5195 0.75 15.625 0.75V6.86414C17.9157 6.86414 20.0198 7.6781 21.6633 9.03204Z" fill="#D93F21"/>
</g>
<defs>
<clipPath id="clip0_375_1520">
<rect width="31.25" height="31.25" fill="white" transform="translate(0 0.75)"/>
</clipPath>
</defs>
</svg>
