<svg width="17" height="22" viewBox="0 0 17 22" fill="none" xmlns="http://www.w3.org/2000/svg">
<path fill-rule="evenodd" clip-rule="evenodd" d="M4.31682 8.07236H12.2805C12.8273 8.07234 13.2991 8.07233 13.6876 8.10407C14.0977 8.13758 14.5056 8.21156 14.8982 8.41155C15.4837 8.7099 15.9598 9.18597 16.2581 9.77153C16.4581 10.164 16.5321 10.5719 16.5656 10.982C16.5974 11.3705 16.5974 11.8424 16.5973 12.3891V17.2409C16.5974 17.7877 16.5974 18.2594 16.5656 18.6479C16.5321 19.058 16.4581 19.4659 16.2581 19.8584C15.9598 20.444 15.4837 20.92 14.8982 21.2184C14.5056 21.4184 14.0977 21.4924 13.6876 21.5259C13.2991 21.5576 12.8273 21.5576 12.2805 21.5576H4.31681C3.76999 21.5576 3.29825 21.5576 2.90969 21.5259C2.49959 21.4924 2.09169 21.4184 1.69918 21.2184C1.11362 20.92 0.637549 20.444 0.339191 19.8584C0.139199 19.4659 0.0652209 19.058 0.0317139 18.6479C-3.10077e-05 18.2594 -1.6282e-05 17.7876 7.87727e-07 17.2408V12.3891C-1.6282e-05 11.8423 -3.10058e-05 11.3706 0.0317139 10.982C0.0652209 10.5719 0.139199 10.164 0.339191 9.77153C0.637549 9.18597 1.11362 8.7099 1.69918 8.41155C2.09169 8.21156 2.49959 8.13758 2.90969 8.10407C3.29823 8.07233 3.77002 8.07234 4.31682 8.07236ZM8.29867 14.2963C7.72576 14.2963 7.26133 14.7607 7.26133 15.3336V16.371C7.26133 16.9439 7.72576 17.4083 8.29867 17.4083C8.87157 17.4083 9.336 16.9439 9.336 16.371V15.3336C9.336 14.7607 8.87157 14.2963 8.29867 14.2963Z" fill="white"/>
<path fill-rule="evenodd" clip-rule="evenodd" d="M4.14935 4.96041C4.14935 2.66882 6.00707 0.811111 8.29869 0.811111C10.5903 0.811111 12.448 2.66882 12.448 4.96041V7.03505C12.448 7.60795 11.9836 8.07238 11.4107 8.07238C10.8378 8.07238 10.3734 7.60795 10.3734 7.03505V4.96041C10.3734 3.81461 9.44449 2.88576 8.29869 2.88576C7.15288 2.88576 6.22402 3.81461 6.22402 4.96041V7.03505C6.22402 7.60795 5.75959 8.07238 5.18669 8.07238C4.61378 8.07238 4.14935 7.60795 4.14935 7.03505V4.96041Z" fill="white"/>
</svg>
