<svg width="25" height="25" viewBox="0 0 25 25" fill="none" xmlns="http://www.w3.org/2000/svg">
<path d="M6.25 15.625C7.97589 15.625 9.375 14.2259 9.375 12.5C9.375 10.7741 7.97589 9.375 6.25 9.375C4.52411 9.375 3.125 10.7741 3.125 12.5C3.125 14.2259 4.52411 15.625 6.25 15.625Z" stroke="#FF9832" stroke-width="1.5625" stroke-linecap="round" stroke-linejoin="round"/>
<path d="M17.1875 22.6562C18.9134 22.6562 20.3125 21.2571 20.3125 19.5312C20.3125 17.8054 18.9134 16.4062 17.1875 16.4062C15.4616 16.4062 14.0625 17.8054 14.0625 19.5312C14.0625 21.2571 15.4616 22.6562 17.1875 22.6562Z" stroke="#FF9832" stroke-width="1.5625" stroke-linecap="round" stroke-linejoin="round"/>
<path d="M17.1875 8.59375C18.9134 8.59375 20.3125 7.19464 20.3125 5.46875C20.3125 3.74286 18.9134 2.34375 17.1875 2.34375C15.4616 2.34375 14.0625 3.74286 14.0625 5.46875C14.0625 7.19464 15.4616 8.59375 17.1875 8.59375Z" stroke="#FF9832" stroke-width="1.5625" stroke-linecap="round" stroke-linejoin="round"/>
<path d="M14.5605 7.1582L8.87695 10.8105" stroke="#FF9832" stroke-width="1.5625" stroke-linecap="round" stroke-linejoin="round"/>
<path d="M8.87695 14.1895L14.5605 17.8418" stroke="#FF9832" stroke-width="1.5625" stroke-linecap="round" stroke-linejoin="round"/>
</svg>
