<svg width="23" height="27" viewBox="0 0 23 27" fill="none" xmlns="http://www.w3.org/2000/svg">
<g clip-path="url(#clip0_72_1093)">
<path d="M1.51932 11.5163V21.8222C1.51932 24.1743 6.09884 26.0777 11.728 26.0777C17.3727 26.0777 21.9368 24.1743 21.9368 21.8222V11.5163H1.51932Z" fill="#FFE7B8"/>
<path d="M1.85401 20.3675C1.85401 20.3675 4.24285 18.1083 6.02265 20.3675C7.80275 22.6268 9.11127 22.7197 11.1499 21.8376C13.1737 20.9555 14.2385 19.2996 16.1859 20.7543C18.3462 22.3635 19.4572 22.5956 21.3131 20.4756V19.0055L18.8636 19.9959L15.5774 19.0055L12.2912 19.516L9.37012 20.8003L4.68408 17.9993L1.6868 19.0058L1.85401 20.3675Z" fill="#F9CC91"/>
<path d="M11.7283 26.8512C6.4032 26.8512 0.743652 25.1027 0.743652 21.8993V11.7792C0.743652 11.3459 1.07837 10.9901 1.5196 10.9901H21.9525C22.3786 10.9901 22.7285 11.3305 22.7285 11.7792V21.8839C22.713 25.1027 17.0532 26.8512 11.7283 26.8512ZM2.28008 12.5684V21.8993C2.28008 23.4932 6.32733 25.2882 11.7283 25.2882C17.1293 25.2882 21.1766 23.4932 21.1766 21.8993V12.5684H2.28008Z" fill="#4C2F1B"/>
<path d="M1.51932 19.1296C1.51932 19.1296 4.07537 16.9478 5.93134 18.3712C7.7876 19.795 8.09168 21.4969 10.3285 20.7077C12.565 19.9185 14.0255 17.1175 17.8598 20.0268C19.8374 21.5277 21.9371 17.783 21.9371 16.5759V12.2434H1.51932V19.1296Z" fill="#FF6464"/>
<path d="M1.6868 16.174C1.6868 16.4987 1.89774 16.762 2.15838 16.762C2.41871 16.762 2.62996 16.4987 2.62996 16.174C2.62996 15.8493 2.41901 15.586 2.15838 15.586C1.89774 15.586 1.6868 15.849 1.6868 16.174Z" fill="#FFDEC7"/>
<path d="M9.29397 21.6984C8.09196 21.6984 7.39218 20.9401 6.70757 20.1975C6.3425 19.7953 5.96197 19.3928 5.46004 19.0061C4.13635 17.9848 2.02153 19.7178 1.99118 19.7333C1.76298 19.9345 1.44343 19.9654 1.16971 19.8416C0.89539 19.7021 0.72818 19.4237 0.72818 19.1296V12.2434C0.72818 11.8101 1.0629 11.4542 1.50413 11.4542H21.9371C22.3631 11.4542 22.713 11.7947 22.713 12.2434V16.5762C22.713 17.7058 21.5262 20.0734 19.9591 20.8935C19.0918 21.3422 18.179 21.2493 17.4031 20.6768C14.9839 18.8351 13.8125 19.578 12.3519 20.5064C11.8042 20.8623 11.2413 21.2336 10.5718 21.4657C10.1003 21.6209 9.67421 21.6984 9.29397 21.6984ZM4.50141 17.1178C5.12532 17.1178 5.79476 17.3036 6.4032 17.7524C7.01164 18.2166 7.45287 18.6965 7.84858 19.1141C8.68553 20.0117 8.98989 20.3521 10.1003 19.9654C10.5873 19.7799 11.0741 19.4854 11.5611 19.1762C13.1282 18.1706 15.0755 16.9169 18.362 19.4083C18.6663 19.6404 18.9401 19.6558 19.3051 19.4703C20.3396 18.9441 21.2069 17.1027 21.2069 16.561V13.0326H2.28008V17.7215C2.88852 17.3965 3.66477 17.1178 4.50141 17.1178Z" fill="#4C2F1B"/>
<path d="M1.51932 12.0734C1.51932 14.0049 6.08992 15.5706 11.728 15.5706C17.3662 15.5706 21.9368 14.0049 21.9368 12.0734C21.9368 10.1418 17.3665 8.57616 11.7283 8.57616C6.09022 8.57616 1.51932 10.1418 1.51932 12.0734Z" fill="#FF7171"/>
<path d="M11.7283 16.3595C6.28151 16.3595 0.743652 14.8894 0.743652 12.0888C0.743652 9.28788 6.28181 7.80238 11.7283 7.80238C17.1751 7.80238 22.713 9.27245 22.713 12.0734C22.713 14.874 17.1748 16.3595 11.7283 16.3595ZM11.7283 9.34992C5.96197 9.34992 2.28008 10.9592 2.28008 12.0579C2.28008 13.1567 5.9468 14.7814 11.7283 14.7814C17.4947 14.7814 21.1766 13.1721 21.1766 12.0734C21.1766 10.9592 17.4792 9.34992 11.7283 9.34992Z" fill="#4C2F1B"/>
<path d="M8.80692 17.7215C8.80692 17.9316 8.9173 18.1258 9.09611 18.2308C9.27492 18.3358 9.49539 18.3358 9.67421 18.2308C9.85302 18.1258 9.9634 17.9316 9.9634 17.7215C9.9634 17.5115 9.85302 17.3173 9.67421 17.2123C9.49539 17.1072 9.27492 17.1072 9.09611 17.2123C8.9173 17.3173 8.80692 17.5112 8.80692 17.7215Z" fill="#FFDEC7"/>
<path d="M18.6354 16.9478C18.6354 17.2725 18.8942 17.5357 19.2135 17.5357C19.5327 17.5357 19.7916 17.2725 19.7916 16.9478C19.7916 16.6231 19.5327 16.3598 19.2135 16.3598C18.8942 16.3595 18.6354 16.6228 18.6354 16.9478Z" fill="#FFDEC7"/>
<path d="M17.6161 1.70545L13.2496 10.9437L15.0142 11.0366L19.1073 2.44835C19.2897 2.09249 19.0921 1.62829 18.666 1.42705C18.2703 1.21039 17.7988 1.34959 17.6161 1.70545Z" fill="#7A4826"/>
<path d="M15.0145 11.5009H14.9842L13.2192 11.408C13.052 11.3925 12.9303 11.3151 12.8542 11.1759C12.778 11.0367 12.778 10.882 12.839 10.7271L17.2055 1.4888C17.3423 1.22583 17.5554 1.00917 17.8597 0.916266C18.1793 0.807932 18.5595 0.838798 18.8791 0.9783C19.503 1.28787 19.8071 2.03047 19.5333 2.61873L15.4102 11.2222C15.3492 11.408 15.1972 11.5009 15.0145 11.5009ZM13.9648 10.495L14.7256 10.5416L18.6967 2.232C18.7422 2.12367 18.6815 1.93817 18.4837 1.82984C18.3771 1.78324 18.2555 1.7681 18.1641 1.79897C18.1338 1.8144 18.0728 1.84557 18.0576 1.89187L13.9648 10.495Z" fill="#4C2F1B"/>
<path d="M12.5498 3.45421L12.7629 11.8104L14.2844 11.1916L14.1017 3.39217C14.1017 3.06717 13.8735 2.52551 13.3106 2.58754C12.7477 2.64927 12.5347 3.11377 12.5498 3.45421Z" fill="#7A4826"/>
<path d="M12.7628 12.2746C12.6866 12.2746 12.5804 12.2438 12.5043 12.1972C12.3674 12.1197 12.2912 11.9651 12.2912 11.8259L12.0782 3.46967C12.063 2.8817 12.4433 2.21627 13.2499 2.1388C13.5694 2.10794 13.8738 2.1854 14.102 2.40207C14.4063 2.68047 14.5432 3.1138 14.5432 3.40763L14.7256 11.2067C14.7256 11.408 14.6191 11.578 14.4367 11.6555L12.9148 12.2746C12.8693 12.2589 12.8083 12.2746 12.7628 12.2746ZM13.0062 3.4388L13.204 11.1296L13.7976 10.882L13.6301 3.40763C13.6301 3.31473 13.5846 3.1601 13.4932 3.09807C13.4629 3.08263 13.4322 3.05177 13.3412 3.0672C13.0365 3.09807 13.0062 3.36134 13.0062 3.4388Z" fill="#4C2F1B"/>
<path d="M4.02982 5.54311L7.75723 12.2123H10.6783L12.6411 10.3089L8.86789 4.25885L4.02982 5.54311Z" fill="#6D5030"/>
<path d="M10.6783 12.6613H7.75723C7.59002 12.6613 7.43769 12.5839 7.34634 12.4292L3.60376 5.77522C3.54306 5.63602 3.52759 5.49652 3.57341 5.35732C3.61923 5.21812 3.74092 5.12522 3.87778 5.07862L8.73103 3.79435C8.92889 3.74775 9.14192 3.82552 9.23296 3.99559L13.0214 10.0459C13.1279 10.2317 13.0975 10.4947 12.9607 10.6339L10.9979 12.5373C10.922 12.615 10.8 12.6613 10.6783 12.6613ZM8.04642 11.7329H10.5111L12.0476 10.232L8.65487 4.80052L4.7296 5.85268L8.04642 11.7329Z" fill="#4C2F1B"/>
<path d="M5.55109 6.22399L6.19017 7.41536L9.11129 6.61072L8.39603 5.45023L5.55109 6.22399Z" fill="#562D20"/>
<path d="M6.19017 7.72491C6.08366 7.72491 5.97714 7.66288 5.91615 7.55455L5.26189 6.34745C5.21607 6.27028 5.21607 6.16195 5.24671 6.06905C5.27706 5.99158 5.35323 5.91441 5.45974 5.88355L8.30469 5.10978C8.44155 5.07892 8.57871 5.12522 8.63941 5.24898L9.35436 6.40948C9.40018 6.48695 9.41536 6.59498 9.38471 6.68788C9.35436 6.78078 9.2782 6.85825 9.17168 6.87368L6.28092 7.67831C6.26634 7.72491 6.22052 7.72491 6.19017 7.72491ZM6.00779 6.40978L6.3425 7.04435L8.60936 6.40978L8.22912 5.80608L6.00779 6.40978Z" fill="#4C2F1B"/>
<path d="M6.85962 8.35948L7.52905 9.55114L10.4198 8.74651L9.70487 7.58601L6.85962 8.35948Z" fill="#562D20"/>
<path d="M7.52904 9.87585C7.42253 9.87585 7.31602 9.81382 7.25532 9.70549L6.60106 8.49869C6.55524 8.42122 6.55524 8.29745 6.58589 8.21999C6.61623 8.14252 6.6924 8.06535 6.79891 8.03449L9.62899 7.26072C9.76585 7.22986 9.90271 7.27616 9.9637 7.39992L10.6787 8.56042C10.7242 8.63789 10.7394 8.74592 10.709 8.83882C10.6787 8.93172 10.6025 9.00919 10.496 9.02462L7.60521 9.82925C7.57457 9.87585 7.54422 9.87585 7.52904 9.87585ZM7.33119 8.56072L7.66591 9.19529L9.93306 8.56072L9.56799 7.95732L7.33119 8.56072Z" fill="#4C2F1B"/>
<path d="M7.95511 10.4175L8.62454 11.6246L11.5153 10.8042L10.8004 9.65918L7.95511 10.4175Z" fill="#562D20"/>
<path d="M8.62453 11.9496C8.51802 11.9496 8.41151 11.8876 8.35081 11.7792L7.69655 10.5724C7.65073 10.495 7.65073 10.3866 7.68138 10.2937C7.71172 10.2163 7.78789 10.1391 7.8944 10.1082L10.7394 9.33448C10.8762 9.30362 11.0134 9.34992 11.0741 9.47368L11.789 10.6342C11.8348 10.7116 11.85 10.8197 11.8194 10.9126C11.789 11.0055 11.7129 11.0829 11.6063 11.0984L8.71558 11.903C8.67006 11.9496 8.63971 11.9496 8.62453 11.9496ZM8.42668 10.6342L8.7614 11.2687L11.0283 10.6342L10.6632 10.0153L8.42668 10.6342Z" fill="#4C2F1B"/>
<path d="M17.5251 11.4234C17.5251 13.1873 16.11 13.0481 14.3909 13.0481C12.6563 13.0481 11.2568 13.1873 11.2568 11.4234C11.2568 9.65918 12.6718 8.23572 14.3909 8.23572C16.11 8.22029 17.5251 9.65949 17.5251 11.4234Z" fill="#FBFFA6"/>
<path d="M13.7366 13.5277C12.7173 13.5277 11.8652 13.4814 11.2871 12.9243C10.9524 12.5839 10.7697 12.0888 10.7697 11.4234C10.7697 9.39621 12.3826 7.77151 14.3602 7.77151C16.3534 7.77151 17.9508 9.41195 17.9508 11.4234C17.9508 12.0888 17.7833 12.553 17.4334 12.9243C16.8246 13.5431 15.836 13.5431 14.6795 13.5277H13.7366ZM14.3754 12.5839H14.7101C15.6533 12.5839 16.4751 12.5993 16.8098 12.2434C16.9773 12.0734 17.0531 11.8101 17.0531 11.4234C17.0531 9.92245 15.8511 8.71535 14.3906 8.71535C12.93 8.71535 11.728 9.92245 11.728 11.4234C11.728 11.8255 11.8042 12.0888 11.9714 12.2434C12.3061 12.5839 13.1428 12.5839 14.071 12.5839H14.3754Z" fill="#4C2F1B"/>
<path d="M14.2082 12.4601C14.2082 13.9765 13.0062 13.8527 11.5153 13.8527C10.0244 13.8527 8.83755 13.961 8.83755 12.4601C8.83755 10.9592 10.0396 9.72122 11.5305 9.72122C13.0214 9.72122 14.2082 10.9438 14.2082 12.4601Z" fill="#FF64A3"/>
<path d="M12.0631 14.3172H11.2416C10.2374 14.3172 9.38532 14.3326 8.83757 13.7755C8.5332 13.466 8.38116 13.033 8.38116 12.4601C8.38116 10.6808 9.7962 9.25702 11.5153 9.25702C13.2344 9.25702 14.6646 10.6959 14.6646 12.4601C14.6646 13.0326 14.5126 13.466 14.2082 13.7755C13.7212 14.286 12.9607 14.3172 12.0631 14.3172ZM11.5153 13.3731H11.8045C12.5653 13.3731 13.2805 13.3731 13.5543 13.0944C13.6911 12.9552 13.7521 12.7539 13.7521 12.4289C13.7521 11.1755 12.748 10.1697 11.5308 10.1697C10.2984 10.1697 9.30945 11.191 9.30945 12.4289C9.30945 12.7385 9.37014 12.9552 9.5073 13.0944C9.78103 13.3731 10.4963 13.3731 11.2568 13.3731H11.5153Z" fill="#4C2F1B"/>
<path d="M15.3189 10.6496C15.3189 11 15.5983 11.2842 15.9428 11.2842C16.2874 11.2842 16.5667 11 16.5667 10.6496C16.5667 10.2992 16.2874 10.015 15.9428 10.015C15.598 10.0153 15.3189 10.2992 15.3189 10.6496Z" fill="white"/>
<path d="M11.7283 11.6246C11.7283 11.8401 11.8414 12.0395 12.025 12.1472C12.2085 12.2552 12.4347 12.2552 12.6182 12.1472C12.8018 12.0395 12.9149 11.8404 12.9149 11.6246C12.9149 11.4089 12.8018 11.2097 12.6182 11.102C12.4347 10.9943 12.2085 10.9943 12.025 11.102C11.8414 11.2097 11.7283 11.4089 11.7283 11.6246Z" fill="white"/>
</g>
<defs>
<clipPath id="clip0_72_1093">
<rect width="22" height="26" fill="white" transform="translate(0.72818 0.851196)"/>
</clipPath>
</defs>
</svg>
