<svg width="27" height="27" viewBox="0 0 27 27" fill="none" xmlns="http://www.w3.org/2000/svg">
<g clip-path="url(#clip0_72_1074)">
<path d="M1.6535 16.1945V19.1109H24.7669C25.4167 19.1109 25.9124 16.1431 25.9124 16.1431L1.6535 16.1945Z" fill="#F2C05A"/>
<path d="M1.65321 19.8242C1.25264 19.8242 0.938446 19.5108 0.938446 19.1108V16.1942C0.938446 15.801 1.25908 15.4811 1.65321 15.4811L25.9294 15.4297C26.1312 15.4297 26.3399 15.5252 26.4612 15.673C26.6005 15.8398 26.6541 16.0426 26.6134 16.2453C26.0211 19.8242 25.1224 19.8242 24.7842 19.8242H1.65321ZM24.5669 18.4147L24.615 18.3186C24.7233 18.1024 24.8483 17.7188 25.0205 17.0747L25.0791 16.8559L2.38525 16.9079V18.4147H2.55918H24.5669Z" fill="#4C2F1B"/>
<path d="M19.6895 1.76476C19.1937 1.50885 18.5782 1.57721 18.168 1.9526L1.67047 16.1945H4.74797V24.3985C4.74797 25.3707 5.53418 26.1551 6.50867 26.1551C7.48316 26.1551 8.26937 25.3707 8.26937 24.3985V16.1945H10.0986V20.0661C10.0986 21.0553 10.9191 21.8742 11.9108 21.8742C12.9023 21.8742 13.7231 21.0556 13.7231 20.0661V16.1945H16.3388C16.5953 17.1667 17.4673 17.883 18.51 17.883C19.553 17.883 20.4417 17.1667 20.6813 16.1945L25.9467 16.1775C27.6046 6.74537 21.9289 2.89065 19.6895 1.76476Z" fill="#FFDE8A"/>
<path d="M14.2531 7.97322C15.2615 7.97322 16.0653 7.1716 16.0653 6.16519C16.0653 5.46582 15.6721 4.88593 15.1078 4.57919L12.5606 6.77926C12.8171 7.47863 13.4666 7.97322 14.2531 7.97322Z" fill="#FF5C5C"/>
<path d="M14.2531 8.33137C13.3468 8.33137 12.5263 7.75149 12.2186 6.89875C12.1673 6.76232 12.2013 6.60895 12.3211 6.5067L14.8683 4.30634C14.9708 4.20409 15.1418 4.18686 15.2612 4.25522C15.9792 4.63061 16.4067 5.36387 16.4067 6.14854C16.4243 7.35915 15.4498 8.33137 14.2531 8.33137ZM12.9878 6.8818C13.2443 7.3425 13.7231 7.6323 14.2531 7.6323C15.0566 7.6323 15.7063 6.98434 15.7063 6.18243C15.7063 5.72203 15.4841 5.29551 15.1248 5.02265L12.9878 6.8818Z" fill="#4C2F1B"/>
<path d="M20.2537 9.52533C20.0485 10.3953 20.6127 11.2822 21.4845 11.4698C22.1 11.6062 22.6982 11.3845 23.0744 10.941L21.6385 8.26331C20.9717 8.34861 20.4075 8.82596 20.2537 9.52533Z" fill="#FF5C5C"/>
<path d="M21.8435 11.8621C21.7067 11.8621 21.553 11.8452 21.4162 11.811C20.3562 11.5723 19.6725 10.5148 19.9118 9.44031C20.0997 8.63869 20.7665 8.02463 21.6042 7.92238C21.741 7.90544 21.895 7.9735 21.9632 8.10993L23.3992 10.7707C23.4677 10.9071 23.4504 11.0605 23.3479 11.163C22.9547 11.6062 22.4077 11.8621 21.8435 11.8621ZM20.5955 9.59368C20.527 9.9349 20.5785 10.2758 20.7662 10.5487C20.9545 10.8385 21.228 11.0433 21.5697 11.1116C21.9459 11.1969 22.3389 11.0947 22.6467 10.8557L21.4672 8.65564C21.023 8.80901 20.698 9.14993 20.5955 9.59368Z" fill="#4C2F1B"/>
<path d="M6.4914 26.8513C5.1263 26.8513 4.01535 25.7432 4.01535 24.381V16.8903H1.65321C1.34868 16.8903 1.09129 16.7095 0.997592 16.4294C0.885151 16.1475 0.967725 15.8366 1.19964 15.6459L17.7004 1.40136C18.0828 1.07592 18.5677 0.895966 19.0652 0.895966C19.3929 0.895966 19.7088 0.970752 20.0046 1.11857C22.008 2.12615 28.4078 6.19558 26.6298 16.2494C26.5756 16.5868 26.2746 16.8392 25.9291 16.8392L21.1556 16.8568L21.1073 16.9502C20.5981 17.9339 19.5961 18.545 18.4925 18.545C17.3891 18.545 16.3871 17.9341 15.8776 16.9502L15.8287 16.8562H14.4206V20.0147C14.4206 21.3957 13.2947 22.5189 11.9105 22.5189C10.5264 22.5189 9.40082 21.3957 9.40082 20.015V16.8565H8.98415V24.3471C8.96833 25.7271 7.85007 26.8513 6.4914 26.8513ZM19.0476 2.32363C18.8866 2.32363 18.7376 2.3803 18.6163 2.48781L3.56237 15.4811H4.73041C4.92865 15.4811 5.10141 15.5515 5.21648 15.6795C5.35733 15.8203 5.42819 15.9961 5.42819 16.1945V24.3985C5.42819 24.9834 5.90519 25.4592 6.49111 25.4592C7.08728 25.4592 7.55403 24.9933 7.55403 24.3985V16.1942C7.55403 15.801 7.87467 15.4811 8.2688 15.4811H10.098C10.296 15.4811 10.4687 15.5515 10.5841 15.6795C10.7249 15.8203 10.7958 15.9961 10.7958 16.1945V20.0661C10.7958 20.6697 11.288 21.1608 11.893 21.1608C12.4979 21.1608 12.9902 20.6697 12.9902 20.0661V16.1772C12.9902 15.7837 13.3108 15.4639 13.7049 15.4639H16.3207C16.6474 15.4639 16.9233 15.6792 17.007 15.9993C17.1818 16.6783 17.7926 17.1527 18.4919 17.1527C19.1911 17.1527 19.8019 16.6783 19.9767 15.999C20.0605 15.6795 20.3363 15.4641 20.6628 15.4641L25.3277 15.4466L25.3485 15.2976C26.513 6.98055 21.5471 3.50356 19.358 2.39462C19.252 2.34642 19.1498 2.32363 19.0476 2.32363Z" fill="#4C2F1B"/>
<path d="M25.9294 16.143C27.6392 6.54057 21.6897 2.73698 19.5528 1.69669C19.1252 1.4919 18.6122 1.56026 18.2532 1.86729L16.954 2.99318C19.792 5.10794 24.5617 9.01408 23.1084 16.1606L25.9294 16.143Z" fill="#FFB07B"/>
<path d="M23.1087 16.8564C22.9011 16.8564 22.6952 16.7586 22.5588 16.5947C22.4226 16.432 22.3661 16.2123 22.4074 16.0063C23.6589 9.83353 20.129 6.24699 16.5113 3.55292C16.3403 3.43461 16.2366 3.2342 16.2217 2.99903C16.2085 2.78694 16.2978 2.58449 16.4671 2.44398L17.7689 1.31575C18.1165 1.01631 18.556 0.851257 19.0064 0.851257C19.2927 0.851257 19.5782 0.919909 19.8327 1.04962C21.8789 2.04521 28.4046 6.08018 26.5958 16.2663C26.5417 16.604 26.2407 16.8564 25.8954 16.8564H23.1087ZM19.0163 2.27892C18.8983 2.27892 18.7823 2.32157 18.6889 2.39928L18.0676 2.94995L18.2316 3.0782C19.8713 4.36301 24.8615 8.27294 23.9617 15.2339L23.9365 15.4297H25.3118L25.3326 15.2801C26.5188 6.80438 21.4514 3.39663 19.2178 2.32479C19.1583 2.29528 19.088 2.27892 19.0163 2.27892Z" fill="#4C2F1B"/>
<path d="M23.1087 16.1431C23.1087 16.1431 22.9547 18.0191 22.271 19.1109H24.7839C24.7839 19.1109 25.6729 18.6332 25.9294 16.1431H23.1087Z" fill="#E2803D"/>
<path d="M22.271 19.8242C22.0077 19.8242 21.7779 19.6867 21.6555 19.4562C21.5275 19.2286 21.5325 18.9566 21.6663 18.7425C22.1585 17.9426 22.3611 16.5225 22.3934 16.0878C22.42 15.7282 22.7269 15.4469 23.0917 15.4469H25.9124C26.1218 15.4469 26.3092 15.5293 26.4275 15.6733C26.5765 15.8372 26.6383 16.0247 26.6117 16.2225C26.3218 18.9633 25.2981 19.6352 25.0958 19.7422C25.0138 19.7956 24.8975 19.8242 24.7839 19.8242H22.271ZM23.7242 16.9961C23.6566 17.3338 23.5722 17.7542 23.4381 18.19L23.369 18.4147H24.5157L24.5678 18.3405C24.6855 18.1725 24.9081 17.784 25.0735 17.0691L25.1227 16.8564H23.7523L23.7242 16.9961Z" fill="#4C2F1B"/>
<path d="M9.53464 12.5784C9.53464 13.2284 10.0626 13.7551 10.7141 13.7551C11.3656 13.7551 11.8936 13.2284 11.8936 12.5784C11.8936 11.9284 11.3656 11.4017 10.7141 11.4017C10.0626 11.4017 9.53464 11.9284 9.53464 12.5784Z" fill="#FF5C5C"/>
<path d="M10.7141 14.1136C9.87635 14.1136 9.17535 13.4315 9.17535 12.5787C9.17535 11.726 9.85908 11.0435 10.7141 11.0435C11.5688 11.0435 12.2526 11.7257 12.2526 12.5787C12.2526 13.4312 11.5688 14.1136 10.7141 14.1136ZM10.7141 11.7599C10.2526 11.7599 9.89363 12.1353 9.89363 12.5784C9.89363 13.0219 10.2696 13.397 10.7141 13.397C11.1586 13.397 11.5346 13.0216 11.5346 12.5784C11.5346 12.135 11.1756 11.7599 10.7141 11.7599Z" fill="#4C2F1B"/>
<path d="M16.5268 13.7554H14.0478C13.9111 13.7554 13.7913 13.6359 13.7913 13.4995V12.9366C13.7913 12.8001 13.9111 12.6807 14.0478 12.6807H16.5268C16.6636 12.6807 16.7833 12.8001 16.7833 12.9366V13.4995C16.8003 13.6359 16.6805 13.7554 16.5268 13.7554Z" fill="#3DE25C"/>
<path d="M16.2533 14.1136H14.3386C13.8428 14.1136 13.4496 13.7213 13.4496 13.2267C13.4496 12.7321 13.8428 12.3398 14.3386 12.3398H16.2533C16.749 12.3398 17.1423 12.7321 17.1423 13.2267C17.1423 13.7213 16.749 14.1136 16.2533 14.1136ZM14.3386 13.0388C14.2361 13.0388 14.1506 13.1241 14.1506 13.2264C14.1506 13.3289 14.2361 13.4142 14.3386 13.4142H16.2533C16.3558 13.4142 16.4413 13.3289 16.4413 13.2264C16.4413 13.1241 16.3558 13.0388 16.2533 13.0388H14.3386Z" fill="#4C2F1B"/>
<path d="M18.2362 11.1797L16.9197 9.74705C16.8685 9.69593 16.8685 9.61062 16.9197 9.5595L17.518 9.01379C17.5692 8.96267 17.6547 8.96267 17.7063 9.01379L19.0228 10.4464C19.074 10.4975 19.074 10.5828 19.0228 10.634L18.4245 11.1797C18.39 11.2311 18.2875 11.2311 18.2362 11.1797Z" fill="#3DE25C"/>
<path d="M18.356 11.5209H18.3221C18.1511 11.5209 17.997 11.4356 17.8776 11.3161L16.7493 10.1052C16.6296 9.98573 16.5783 9.81542 16.5783 9.64481C16.5783 9.4745 16.6638 9.32083 16.7836 9.20135L17.1596 8.86014C17.2793 8.74065 17.4503 8.68953 17.6213 8.68953C17.7924 8.68953 17.9461 8.77483 18.0658 8.89432L19.1941 10.1052C19.3138 10.2247 19.3651 10.3953 19.3651 10.5659C19.3651 10.7365 19.2796 10.8899 19.1598 11.0094L18.7838 11.3506C18.6638 11.4525 18.5098 11.5209 18.356 11.5209ZM17.3303 9.66175L18.356 10.7704L18.6295 10.5145L17.6038 9.40584L17.3303 9.66175Z" fill="#4C2F1B"/>
</g>
<defs>
<clipPath id="clip0_72_1074">
<rect width="26" height="26" fill="white" transform="translate(0.938446 0.851257)"/>
</clipPath>
</defs>
</svg>
