<svg width="16" height="16" viewBox="0 0 16 16" fill="none" xmlns="http://www.w3.org/2000/svg">
<path d="M6.15812 14.4473L6.47435 15.396L6.47435 15.396L6.15812 14.4473ZM10.1581 13.114L10.4743 14.0627H10.4743L10.1581 13.114ZM10.7929 7.70712L10.0858 7.00002L10.7929 7.70712ZM5.20711 7.70711L5.91422 7L5.20711 7.70711ZM1.62624 4.12624L0.91913 4.83334L1.62624 4.12624ZM2.33334 2.33334H13.6667V0.333344H2.33334V2.33334ZM2.33334 3.41913V2.33334H0.333344V3.41913H2.33334ZM5.91422 7L2.33334 3.41913L0.91913 4.83334L4.5 8.41422L5.91422 7ZM4.5 8.41422V13.973H6.5V8.41422H4.5ZM4.5 13.973C4.5 14.9968 5.50305 15.7198 6.47435 15.396L5.84189 13.4986C6.16566 13.3907 6.5 13.6317 6.5 13.973H4.5ZM6.47435 15.396L10.4743 14.0627L9.84189 12.1653L5.84189 13.4986L6.47435 15.396ZM10.4743 14.0627C11.0869 13.8585 11.5 13.2853 11.5 12.6396H9.5C9.5 12.4244 9.63772 12.2334 9.84189 12.1653L10.4743 14.0627ZM11.5 12.6396V8.41423H9.5V12.6396H11.5ZM13.6667 3.41913L10.0858 7.00002L11.5 8.41423L15.0809 4.83334L13.6667 3.41913ZM13.6667 2.33334V3.41913H15.6667V2.33334H13.6667ZM15.0809 4.83334C15.456 4.45827 15.6667 3.94956 15.6667 3.41913H13.6667V3.41913L15.0809 4.83334ZM11.5 8.41423V8.41423L10.0858 7.00002C9.71072 7.37509 9.5 7.8838 9.5 8.41423H11.5ZM4.5 8.41422H6.5C6.5 7.88379 6.28929 7.37508 5.91422 7L4.5 8.41422ZM0.333344 3.41913C0.333344 3.94956 0.544057 4.45827 0.91913 4.83334L2.33334 3.41913L2.33334 3.41913H0.333344ZM13.6667 2.33334L13.6667 2.33334H15.6667C15.6667 1.22878 14.7712 0.333344 13.6667 0.333344V2.33334ZM2.33334 0.333344C1.22877 0.333344 0.333344 1.22877 0.333344 2.33334H2.33334V0.333344Z" fill="white"/>
</svg>
