<svg width="27" height="21" viewBox="0 0 27 21" fill="none" xmlns="http://www.w3.org/2000/svg">
<g clip-path="url(#clip0_72_1122)">
<path d="M5.10079 5.41963C5.10079 5.41963 15.5609 11.9019 14.3151 17.2096C14.3151 17.2096 4.78567 14.003 5.10079 5.41963Z" fill="#359A60"/>
<path d="M14.7395 17.9976L14.1098 17.7903C14.0139 17.7625 4.16961 14.3349 4.48444 5.40589L4.52557 4.36937L5.40171 4.90825C5.83992 5.18484 16.2316 11.6811 14.8762 17.3479L14.7395 17.9976ZM5.71683 6.55294C6.15504 12.5241 11.8095 15.4957 13.8086 16.3526C13.8633 12.856 8.70149 8.58504 5.71683 6.55294Z" fill="#4C2F1B"/>
<path d="M1.69153 7.34093C1.69153 7.34093 4.26549 19.3105 15.2596 19.3105C15.2735 19.3107 12.0013 7.47923 1.69153 7.34093Z" fill="#33AC64"/>
<path d="M15.2596 19.9189C3.90952 19.9189 1.13021 7.60378 1.1027 7.47923L0.938477 6.73276L1.69152 6.7465C12.3297 6.8848 15.8073 19.0342 15.8348 19.1587L16.0538 19.9327L15.2596 19.9189C15.2735 19.9189 15.2596 19.9189 15.2596 19.9189ZM2.48569 7.99061C3.22512 10.506 6.16865 18.1912 14.4246 18.6748C13.5071 16.1731 10.1253 8.58504 2.48569 7.99061Z" fill="#4C2F1B"/>
<path d="M22.6806 6.19388C22.6806 6.19388 12.5626 13.2016 14.0823 18.44C14.0823 18.4397 23.4334 14.7495 22.6806 6.19388Z" fill="#359A60"/>
<path d="M13.6988 19.2555L13.5071 18.6195C11.8779 13.0217 21.9136 6.00032 22.338 5.69623L23.1869 5.10181L23.2827 6.13862C24.063 15.0398 14.4107 18.9651 14.3012 19.0067L13.6988 19.2555ZM22.119 7.35467C19.2574 9.53852 14.3149 14.072 14.5474 17.569C16.492 16.5877 21.9959 13.3258 22.119 7.35467Z" fill="#4C2F1B"/>
<path d="M26.2541 7.60378C26.2541 7.60378 14.137 13.2843 14.8353 19.1724C14.849 19.1724 25.5283 16.9056 26.2541 7.60378Z" fill="#33AC64"/>
<path d="M14.3288 19.9049L14.2465 19.2415C13.5071 12.9802 25.501 7.28567 26.0073 7.05059L26.9385 6.60849L26.8562 7.64501C26.1032 17.2927 15.0818 19.7391 14.9584 19.7666L14.3288 19.9049ZM25.5146 8.65405C22.8448 10.0499 15.7254 14.1828 15.4241 18.3845C17.6419 17.721 24.3373 15.2056 25.5146 8.65405Z" fill="#4C2F1B"/>
<path d="M13.7538 2.4896C14.3974 2.4896 15.0271 2.80743 15.383 3.45712L22.5436 16.657C23.2144 17.9011 22.3246 19.4353 20.9144 19.4353H6.57965C5.16943 19.4353 4.27939 17.9149 4.95046 16.657L12.1249 3.45712C12.4803 2.80743 13.11 2.4896 13.7538 2.4896ZM13.7538 0.969177C12.5217 0.969177 11.3988 1.64635 10.81 2.72439L3.63583 15.9243C3.06091 16.9886 3.07452 18.2464 3.69057 19.283C4.30662 20.3198 5.38839 20.9417 6.57936 20.9417H20.9141C22.119 20.9417 23.2005 20.3198 23.8029 19.283C24.419 18.2464 24.4329 16.9886 23.8577 15.9243L16.6974 2.72439C16.1086 1.63261 14.9723 0.969177 13.7538 0.969177Z" fill="#4C2F1B"/>
<path d="M11.1385 12.068C11.0837 12.068 11.0426 12.068 10.9879 12.0542C10.4541 11.9852 10.1389 11.5151 10.1117 11.4598C10.0158 11.3215 10.057 11.1279 10.194 11.0452C10.3307 10.9484 10.5224 10.9899 10.6047 11.1282C10.6594 11.2113 10.8511 11.4186 11.0704 11.4601C11.221 11.4738 11.3852 11.4186 11.5497 11.2665C11.6728 11.156 11.8646 11.1697 11.974 11.2943C12.0835 11.4186 12.0699 11.6121 11.9468 11.7227C11.7001 11.9574 11.4261 12.068 11.1385 12.068Z" fill="#F9E39E"/>
<path d="M15.3555 3.26356L22.9815 16.6292C23.6934 17.8731 22.8037 19.435 21.3796 19.435H6.11391C4.69007 19.435 3.80004 17.8731 4.51195 16.6292L12.1516 3.2773C12.8638 2.01973 14.6436 2.01973 15.3555 3.26356Z" fill="#FAF7BD"/>
<path d="M8.18131 9.9119L3.71779 16.643C3.00588 17.8868 3.89592 19.4488 5.31975 19.4488L14.9859 19.435C11.6589 17.5137 8.9891 11.4461 8.18131 9.9119Z" fill="#3AB26C"/>
<path d="M11.1796 13.7267C11.1249 13.7267 11.0837 13.7267 11.029 13.7129C10.4952 13.6437 10.1801 13.1738 10.1528 13.1185C10.057 12.9802 10.0981 12.7867 10.2351 12.7039C10.3721 12.6071 10.5638 12.6487 10.6458 12.7869C10.7005 12.87 10.8923 13.0773 11.1112 13.1188C11.2619 13.1466 11.4261 13.0773 11.5906 12.9252C11.714 12.8147 11.9054 12.8285 12.0152 12.953C12.1247 13.0773 12.111 13.2708 11.9877 13.3814C11.7412 13.6021 11.4672 13.7267 11.1796 13.7267ZM10.9606 12.068C10.9059 12.068 10.8648 12.068 10.81 12.0542C10.2762 11.9852 9.96111 11.5151 9.93389 11.4598C9.83802 11.3215 9.87914 11.1279 10.0161 11.0452C10.1529 10.9484 10.3446 10.9899 10.4268 11.1282C10.4816 11.2113 10.6733 11.4186 10.8923 11.4601C11.0429 11.4738 11.2071 11.4186 11.3716 11.2665C11.495 11.156 11.6865 11.1697 11.7962 11.2943C11.9057 11.4186 11.8921 11.6121 11.7687 11.7227C11.5083 11.9574 11.2343 12.068 10.9606 12.068Z" fill="#F9E39E"/>
<path d="M13.4112 18.2049C8.60562 17.8734 5.92189 12.5794 5.81241 12.3446L6.62019 11.93C6.64771 11.9852 9.18054 16.9889 13.4796 17.2789L13.4112 18.2049Z" fill="#2D9556"/>
<path d="M5.41562 19.9189L4.63535 19.449C4.7176 19.3245 6.59326 16.2287 11.7412 14.8463L11.9738 15.7307C7.16818 17.0301 5.42923 19.8911 5.41562 19.9189Z" fill="#2D9556"/>
<path d="M8.0307 10.1055C8.07183 10.1055 8.12657 10.1332 8.15408 10.1745C9.13999 11.9297 11.6181 17.5968 14.9862 19.435H5.59373C4.08765 19.435 3.14287 17.8731 3.89591 16.6292L7.92122 10.1745C7.94845 10.1329 7.98957 10.1055 8.0307 10.1055ZM8.0307 8.58504C7.45578 8.58504 6.93531 8.87538 6.63438 9.37274L2.6224 15.8275V15.8413C1.99274 16.8778 1.96523 18.1356 2.55405 19.1862C3.15648 20.2783 4.32022 20.9554 5.59373 20.9554L14.9859 20.9417H20.9555L15.6978 18.0944C13.2609 16.7813 11.1796 12.7314 10.057 10.5616C9.82439 10.1195 9.63266 9.73237 9.45453 9.42828C9.16693 8.90287 8.61924 8.58504 8.0307 8.58504Z" fill="#4C2F1B"/>
<path d="M19.5998 10.6996C17.5052 14.7354 12.8088 18.8128 11.9599 19.435H21.3796C22.8037 19.435 23.7071 17.8731 22.9815 16.6292L19.5998 10.6996Z" fill="#3AB26C"/>
<path d="M13.6168 20.6651L13.3976 19.7806C19.3533 18.2464 21.6672 13.2153 21.6947 13.1598L22.5164 13.5331C22.4205 13.7542 19.9969 19.0204 13.6168 20.6651Z" fill="#2D9556"/>
<path d="M19.5726 20.361L18.6964 20.1537C19.6137 16.1456 17.9298 12.0958 17.9159 12.0542L18.7512 11.6949C18.8056 11.8747 20.5582 16.0623 19.5726 20.361Z" fill="#2D9556"/>
<path d="M16.9163 11.9159C16.8616 11.9159 16.8205 11.9159 16.7657 11.9022C16.2319 11.8332 15.9168 11.3633 15.8896 11.3078C15.7937 11.1697 15.8348 10.9762 15.9718 10.8932C16.1086 10.7964 16.3003 10.8379 16.3825 10.9762C16.4373 11.0592 16.629 11.2665 16.8483 11.3078C16.9989 11.3215 17.1631 11.2662 17.3276 11.1142C17.4507 11.0037 17.6424 11.0174 17.7519 11.142C17.8614 11.2665 17.8478 11.4598 17.7244 11.5706C17.4776 11.8054 17.2039 11.9159 16.9163 11.9159ZM14 15.786C13.9453 15.786 13.9042 15.786 13.8494 15.7723C13.3153 15.7032 13.0005 15.2334 12.9733 15.1781C12.8774 15.0398 12.9185 14.8463 13.0555 14.7635C13.1925 14.6667 13.3843 14.7082 13.4662 14.8465C13.521 14.9296 13.7127 15.1369 13.9317 15.1784C14.0823 15.1921 14.2465 15.1369 14.411 14.9848C14.5344 14.8743 14.7258 14.8881 14.8353 15.0123C14.9448 15.1369 14.9312 15.3302 14.8081 15.441C14.5477 15.6755 14.274 15.786 14 15.786ZM16.9575 13.6574C16.9027 13.6574 16.8616 13.6574 16.8069 13.6437C16.2731 13.5747 15.9579 13.1048 15.9307 13.0495C15.8349 12.9112 15.876 12.7177 16.013 12.6349C16.15 12.5381 16.3417 12.5796 16.4237 12.7179C16.4784 12.801 16.6701 13.0083 16.8891 13.0498C17.0397 13.0636 17.2039 13.0083 17.3684 12.8562C17.4918 12.7457 17.6833 12.7595 17.793 12.8837C17.9025 13.0083 17.8889 13.2016 17.7655 13.3124C17.5188 13.5331 17.2448 13.6574 16.9575 13.6574Z" fill="#F9E39E"/>
<path d="M19.5998 11.1142C19.7093 11.1142 19.819 11.1695 19.8874 11.2663L23.0774 16.6152C23.8168 17.859 22.8857 19.421 21.3932 19.421H11.9738C12.8227 18.8406 17.601 15.1223 19.2986 11.3075C19.3397 11.1835 19.4631 11.1142 19.5998 11.1142ZM19.5998 9.60782C18.874 9.60782 18.2168 10.0365 17.9156 10.6999C16.437 13.9896 12.1105 17.5003 11.111 18.1912L7.11316 20.9692H21.3796C22.6392 20.9692 23.8029 20.292 24.4054 19.214C24.9942 18.1497 24.9803 16.9058 24.3506 15.8553L21.1606 10.5063C20.8322 9.93968 20.2433 9.60782 19.5998 9.60782Z" fill="#4C2F1B"/>
<path d="M12.9597 6.42867C12.9049 6.42867 12.8363 6.42867 12.7818 6.41492C12.2477 6.31814 11.9601 5.84827 11.9193 5.79301C11.837 5.655 11.8782 5.46144 12.0288 5.3784C12.1655 5.29537 12.3572 5.33688 12.4395 5.47518C12.4942 5.55822 12.6723 5.77927 12.8913 5.82079C13.0419 5.84856 13.2061 5.79301 13.3706 5.64125C13.4937 5.53073 13.6855 5.55822 13.795 5.68277C13.9044 5.80733 13.8772 6.0006 13.7541 6.11141C13.4935 6.31814 13.2334 6.42867 12.9597 6.42867ZM13.9728 4.25884C13.9181 4.25884 13.8497 4.25884 13.7947 4.2451C13.2609 4.14832 12.9733 3.67845 12.9321 3.62319C12.8499 3.48489 12.891 3.29133 13.028 3.20858C13.165 3.12554 13.3567 3.16706 13.4387 3.30536C13.4935 3.3884 13.6716 3.60944 13.8905 3.65096C14.0411 3.67874 14.2054 3.62347 14.3699 3.47114C14.4933 3.36062 14.6847 3.38811 14.7945 3.51266C14.904 3.63722 14.8767 3.83049 14.7533 3.94102C14.5066 4.14803 14.2465 4.25884 13.9728 4.25884ZM15.4102 6.37341C15.3555 6.37341 15.2871 6.37341 15.2324 6.35966C14.6986 6.26288 14.411 5.79301 14.3699 5.73775C14.2876 5.59945 14.329 5.40589 14.4794 5.32314C14.6164 5.2401 14.8081 5.28191 14.8901 5.41992C14.9448 5.50296 15.1226 5.724 15.3419 5.76552C15.4925 5.79301 15.6567 5.73775 15.8212 5.58571C15.9446 5.47518 16.1361 5.50267 16.2458 5.62722C16.3553 5.75178 16.3281 5.94505 16.2047 6.05586C15.9443 6.26288 15.6842 6.37341 15.4102 6.37341ZM15.2185 8.41896C14.7392 8.41896 14.3696 8.08739 14.3288 8.04587C14.2054 7.93535 14.2054 7.74179 14.3151 7.61752C14.4246 7.49296 14.6164 7.49296 14.7394 7.60377C14.8081 7.67278 15.0407 7.82482 15.2596 7.81108C15.4102 7.79733 15.5472 7.68652 15.6703 7.50699C15.7662 7.3687 15.9579 7.34092 16.0946 7.4377C16.2316 7.53448 16.2592 7.72804 16.1633 7.86634C15.9304 8.1982 15.6428 8.39176 15.3144 8.41925H15.2185V8.41896ZM12.056 8.29469C11.8782 8.29469 11.7276 8.25317 11.5767 8.17014C11.0973 7.92132 10.9606 7.36841 10.947 7.31315C10.9059 7.14707 11.0017 6.98129 11.1663 6.93977C11.3305 6.89854 11.4947 6.99503 11.5222 7.1611C11.5497 7.25788 11.6456 7.52045 11.8509 7.61723C11.9877 7.68624 12.1522 7.67249 12.3575 7.58946C12.5081 7.5342 12.6862 7.6032 12.7546 7.75524C12.8093 7.90729 12.741 8.0871 12.5904 8.15611C12.3984 8.26721 12.2202 8.29469 12.056 8.29469ZM16.5192 10.1467C16.0674 10.1467 15.7251 9.87038 15.6842 9.82886C15.5608 9.71834 15.5336 9.52478 15.6431 9.40022C15.7526 9.27567 15.9307 9.24818 16.0677 9.35899C16.1361 9.41425 16.3825 9.56629 16.6015 9.52477C16.7521 9.497 16.8752 9.38648 16.9986 9.19292C17.0808 9.0549 17.2723 8.99936 17.4093 9.09614C17.546 9.17917 17.601 9.37245 17.5051 9.51074C17.2998 9.85635 17.0258 10.0637 16.6974 10.1189C16.6426 10.1329 16.5879 10.1467 16.5192 10.1467ZM14.0139 10.437C13.9592 10.437 13.9181 10.437 13.8633 10.4233C13.3292 10.354 13.0144 9.88412 12.9872 9.82886C12.8913 9.69056 12.9324 9.497 13.0694 9.41425C13.2061 9.31747 13.3979 9.35899 13.4801 9.49729C13.5349 9.58032 13.7266 9.78763 13.9456 9.82915C14.0962 9.84289 14.2604 9.78763 14.4249 9.63559C14.548 9.52506 14.7397 9.53881 14.8492 9.66307C14.9587 9.78763 14.9451 9.9809 14.822 10.0917C14.5613 10.3265 14.2876 10.437 14.0139 10.437ZM13.9042 11.999C13.8494 11.999 13.8083 11.999 13.7535 11.9852C13.2195 11.9159 12.9046 11.4461 12.8774 11.3908C12.7815 11.2525 12.8227 11.0589 12.9597 10.9762C13.0967 10.8794 13.2884 10.9209 13.3704 11.0592C13.4251 11.1423 13.6168 11.3496 13.8358 11.3911C13.9864 11.4048 14.1506 11.3496 14.3151 11.1975C14.4385 11.087 14.63 11.1007 14.7394 11.225C14.8489 11.3496 14.8353 11.5428 14.7122 11.6537C14.4518 11.8884 14.1781 11.999 13.9042 11.999ZM13.9453 13.8925C13.8905 13.8925 13.8494 13.8925 13.7947 13.8787C13.2609 13.8097 12.9458 13.3399 12.9185 13.2843C12.8227 13.1463 12.8638 12.9527 13.0008 12.8697C13.1375 12.7729 13.3292 12.8144 13.4115 12.9527C13.4662 13.0358 13.658 13.2431 13.8769 13.2843C14.0275 13.2981 14.1918 13.2428 14.3563 13.0908C14.4796 12.9802 14.6711 12.994 14.7809 13.1185C14.8903 13.2431 14.8767 13.4364 14.7533 13.5469C14.493 13.782 14.2329 13.8925 13.9453 13.8925ZM11.2891 10.2987C11.2343 10.2987 11.1932 10.2987 11.1385 10.285C10.6044 10.216 10.2895 9.74611 10.2623 9.69056C10.1664 9.55255 10.2076 9.35899 10.3446 9.27595C10.4816 9.17917 10.6733 9.22069 10.7553 9.35899C10.81 9.44203 11.0017 9.64933 11.2207 9.69056C11.3713 9.70431 11.5355 9.64904 11.7 9.497C11.8234 9.38648 12.0149 9.40022 12.1246 9.52477C12.2341 9.64933 12.2205 9.8426 12.0971 9.95313C11.8507 10.1745 11.5767 10.2987 11.2891 10.2987Z" fill="#F9E39E"/>
</g>
<defs>
<clipPath id="clip0_72_1122">
<rect width="26" height="20" fill="white" transform="translate(0.938477 0.969177)"/>
</clipPath>
</defs>
</svg>
