<svg width="26" height="26" viewBox="0 0 26 26" fill="none" xmlns="http://www.w3.org/2000/svg">
<path d="M17.875 3.25V13L14.625 10.5625L11.375 13V3.25" stroke="#FF9832" stroke-width="2" stroke-linecap="round" stroke-linejoin="round"/>
<path d="M4.87502 21.9375C4.87368 21.617 4.93581 21.2994 5.05783 21.0031C5.17985 20.7068 5.35934 20.4375 5.58595 20.2109C5.81256 19.9843 6.08181 19.8048 6.37814 19.6828C6.67448 19.5608 6.99205 19.4986 7.31252 19.5H21.125V3.24999H7.31252C6.99205 3.24865 6.67448 3.31078 6.37814 3.4328C6.08181 3.55482 5.81256 3.73431 5.58595 3.96092C5.35934 4.18753 5.17985 4.45677 5.05783 4.75311C4.93581 5.04945 4.87368 5.36702 4.87502 5.68749V21.9375Z" stroke="#FF9832" stroke-width="2" stroke-linecap="round" stroke-linejoin="round"/>
<path d="M4.875 21.9375V22.75H19.5" stroke="#FF9832" stroke-width="2" stroke-linecap="round" stroke-linejoin="round"/>
</svg>
